{
  "source": "C:\\Users\\Peter\\Desktop\\stuff\\MIUN\\quantitative_research\\video_compression\\videos\\HEVC_CLASS_B\\ParkScene_1920x1080_24.y4m",
  "output": "C:\\Users\\Peter\\Desktop\\stuff\\MIUN\\quantitative_research\\video_compression\\compressed_videos\\HEVC_CLASS_B\\av1\\1\\ParkScene_1920x1080_24_av1.mkv",
  "codec": "av1",
  "ok": "Input #0, yuv4mpegpipe, from 'C:\\Users\\Peter\\Desktop\\stuff\\MIUN\\quantitative_research\\video_compression\\videos\\HEVC_CLASS_B\\ParkScene_1920x1080_24.y4m':\n  Duration: 00:00:10.00, start: 0.000000, bitrate: 597198 kb/s\n  Stream #0:0: Video: rawvideo (I420 / 0x30323449), yuv420p(progressive), 1920x1080, 24 fps, 24 tbr, 24 tbn\n[out#0/matroska @ 0000023903ed8ec0] Codec AVOption b:a (set bitrate (in bits/s)) has not been used for any stream. The most likely reason is either wrong type (e.g. a video option with no video streams) or that it is a private option of some decoder which was not actually used for any stream.\nStream mapping:\n  Stream #0:0 -> #0:0 (rawvideo (native) -> av1 (libsvtav1))\nPress [q] to stop, [?] for help\nSvt[info]: -------------------------------------------\nSvt[info]: SVT [version]:\tSVT-AV1 Encoder Lib v3.1.0-19-g6ecfe8ec\nSvt[info]: SVT [build]  :\tGCC 15.2.0\t 64 bit\nSvt[info]: LIB Build date: Aug 17 2025 11:37:13\nSvt[info]: -------------------------------------------\n[libsvtav1 @ 0000023903edc080] Specified chroma sample location center is unsupported on the AV1 bit stream level. Usage of a container that allows passing this information - such as Matroska - is recommended.\nSvt[info]: Level of Parallelism: 5\nSvt[info]: Number of PPCS 93\nSvt[info]: [asm level on system : up to avx2]\nSvt[info]: [asm level selected : up to avx2]\nSvt[info]: -------------------------------------------\nSvt[info]: SVT [config]: main profile\ttier (auto)\tlevel (auto)\nSvt[info]: SVT [config]: width / height / fps numerator / fps denominator \t\t: 1920 / 1080 / 24 / 1\nSvt[info]: SVT [config]: bit-depth / color format \t\t\t\t\t: 8 / YUV420\nSvt[info]: SVT [config]: preset / tune / pred struct \t\t\t\t\t: 4 / PSNR / random access\nSvt[info]: SVT [config]: gop size / mini-gop size / key-frame type \t\t\t: 161 / 16 / key frame\nSvt[info]: SVT [config]: BRC mode / target bitrate (kbps)\t\t\t\t: VBR / 1000 \nSvt[info]: SVT [config]: AQ mode / Variance Boost \t\t\t\t\t: 2 / 0\nSvt[info]: SVT [config]: sharpness / luminance-based QP bias \t\t\t\t: 0 / 0\nSvt[info]: SVT [config]: QP scale compress strength \t\t\t\t\t: 0\nSvt[info]: -------------------------------------------\nOutput #0, matroska, to 'C:\\Users\\Peter\\Desktop\\stuff\\MIUN\\quantitative_research\\video_compression\\compressed_videos\\HEVC_CLASS_B\\av1\\1\\ParkScene_1920x1080_24_av1.mkv':\n  Metadata:\n    encoder         : Lavf62.3.100\n  Stream #0:0: Video: av1 (AV01 / 0x31305641), yuv420p(tv, progressive), 1920x1080, q=2-31, 1000 kb/s, 24 fps, 1k tbn\n    Metadata:\n      encoder         : Lavc62.11.100 libsvtav1\n    Side data:\n      cpb: bitrate max/min/avg: 0/0/1000000 buffer size: 1000000 vbv_delay: N/A\nframe=    0 fps=0.0 q=0.0 size=       0KiB time=N/A bitrate=N/A speed=N/A elapsed=0:00:02.55    \nframe=    0 fps=0.0 q=0.0 size=       0KiB time=N/A bitrate=N/A speed=N/A elapsed=0:00:03.64    \nframe=    0 fps=0.0 q=0.0 size=       0KiB time=N/A bitrate=N/A speed=N/A elapsed=0:00:04.42    \nframe=    0 fps=0.0 q=0.0 size=       0KiB time=N/A bitrate=N/A speed=N/A elapsed=0:00:05.17    \nframe=    0 fps=0.0 q=0.0 size=       0KiB time=N/A bitrate=N/A speed=N/A elapsed=0:00:05.80    \nframe=    0 fps=0.0 q=0.0 size=       0KiB time=N/A bitrate=N/A speed=N/A elapsed=0:00:06.39    \nframe=    0 fps=0.0 q=0.0 size=       0KiB time=N/A bitrate=N/A speed=N/A elapsed=0:00:07.01    \nframe=    0 fps=0.0 q=0.0 size=       0KiB time=N/A bitrate=N/A speed=N/A elapsed=0:00:07.61    \nframe=    0 fps=0.0 q=0.0 size=       0KiB time=N/A bitrate=N/A speed=N/A elapsed=0:00:08.18    \nframe=    0 fps=0.0 q=0.0 size=       0KiB time=N/A bitrate=N/A speed=N/A elapsed=0:00:08.75    \nframe=    0 fps=0.0 q=0.0 size=       0KiB time=N/A bitrate=N/A speed=N/A elapsed=0:00:09.27    \nframe=    0 fps=0.0 q=0.0 size=       0KiB time=N/A bitrate=N/A speed=N/A elapsed=0:00:09.81    \nframe=    0 fps=0.0 q=0.0 size=       0KiB time=N/A bitrate=N/A speed=N/A elapsed=0:00:10.35    \nframe=    1 fps=0.1 q=24.0 size=       1KiB time=00:00:00.00 bitrate=N/A speed=   0x elapsed=0:00:10.90    \nframe=    1 fps=0.1 q=24.0 size=       1KiB time=00:00:00.00 bitrate=N/A speed=   0x elapsed=0:00:11.44    \nframe=    1 fps=0.1 q=24.0 size=       1KiB time=00:00:00.00 bitrate=N/A speed=   0x elapsed=0:00:11.95    \nframe=    1 fps=0.1 q=24.0 size=       1KiB time=00:00:00.00 bitrate=N/A speed=   0x elapsed=0:00:12.49    \nframe=    1 fps=0.1 q=24.0 size=       1KiB time=00:00:00.00 bitrate=N/A speed=   0x elapsed=0:00:13.02    \nframe=    1 fps=0.1 q=24.0 size=       1KiB time=00:00:00.00 bitrate=N/A speed=   0x elapsed=0:00:13.55    \nframe=    1 fps=0.1 q=24.0 size=       1KiB time=00:00:00.00 bitrate=N/A speed=   0x elapsed=0:00:14.12    \nframe=    1 fps=0.1 q=24.0 size=       1KiB time=00:00:00.00 bitrate=N/A speed=   0x elapsed=0:00:14.70    \nframe=    3 fps=0.2 q=49.0 size=       1KiB time=00:00:00.08 bitrate=  54.0kbits/s speed=0.00547x elapsed=0:00:15.24    \nframe=    5 fps=0.3 q=47.0 size=       1KiB time=00:00:00.16 bitrate=  27.0kbits/s speed=0.0106x elapsed=0:00:15.79    \nframe=    6 fps=0.4 q=50.0 size=       1KiB time=00:00:00.20 bitrate=  21.6kbits/s speed=0.0128x elapsed=0:00:16.30    \nframe=    6 fps=0.4 q=50.0 size=       1KiB time=00:00:00.20 bitrate=  21.6kbits/s speed=0.0124x elapsed=0:00:16.81    \nframe=    6 fps=0.3 q=50.0 size=       1KiB time=00:00:00.20 bitrate=  21.6kbits/s speed=0.012x elapsed=0:00:17.32    \nframe=    7 fps=0.4 q=49.0 size=       1KiB time=00:00:00.25 bitrate=  18.0kbits/s speed=0.014x elapsed=0:00:17.87    \nframe=    8 fps=0.4 q=50.0 size=       1KiB time=00:00:00.29 bitrate=  15.4kbits/s speed=0.0159x elapsed=0:00:18.39    \nframe=   10 fps=0.5 q=50.0 size=       1KiB time=00:00:00.37 bitrate=  12.0kbits/s speed=0.0198x elapsed=0:00:18.92    \nframe=   11 fps=0.6 q=49.0 size=       1KiB time=00:00:00.41 bitrate=  10.8kbits/s speed=0.0214x elapsed=0:00:19.44    \nframe=   12 fps=0.6 q=50.0 size=       1KiB time=00:00:00.45 bitrate=   9.8kbits/s speed=0.0229x elapsed=0:00:19.98    \nframe=   14 fps=0.7 q=50.0 size=       1KiB time=00:00:00.54 bitrate=   8.3kbits/s speed=0.0264x elapsed=0:00:20.50    \nframe=   15 fps=0.7 q=46.0 size=       1KiB time=00:00:00.58 bitrate=   7.7kbits/s speed=0.0277x elapsed=0:00:21.03    \nframe=   16 fps=0.7 q=50.0 size=       1KiB time=00:00:00.62 bitrate=   7.2kbits/s speed=0.029x elapsed=0:00:21.55    \nframe=   20 fps=0.9 q=52.0 size=       1KiB time=00:00:00.79 bitrate=   5.7kbits/s speed=0.0358x elapsed=0:00:22.08    \nframe=   22 fps=1.0 q=52.0 size=       1KiB time=00:00:00.87 bitrate=   5.1kbits/s speed=0.0387x elapsed=0:00:22.61    \nframe=   23 fps=1.0 q=51.0 size=       1KiB time=00:00:00.91 bitrate=   4.9kbits/s speed=0.0396x elapsed=0:00:23.17    \nframe=   24 fps=1.0 q=52.0 size=       1KiB time=00:00:00.95 bitrate=   4.7kbits/s speed=0.0404x elapsed=0:00:23.69    \nframe=   26 fps=1.1 q=52.0 size=       1KiB time=00:00:01.04 bitrate=   4.3kbits/s speed=0.043x elapsed=0:00:24.21    \nframe=   27 fps=1.1 q=51.0 size=       1KiB time=00:00:01.08 bitrate=   4.2kbits/s speed=0.0438x elapsed=0:00:24.73    \nframe=   29 fps=1.1 q=49.0 size=       1KiB time=00:00:01.16 bitrate=   3.9kbits/s speed=0.0461x elapsed=0:00:25.29    \nframe=   30 fps=1.2 q=52.0 size=       1KiB time=00:00:01.20 bitrate=   3.7kbits/s speed=0.0468x elapsed=0:00:25.81    \nframe=   30 fps=1.1 q=52.0 size=       1KiB time=00:00:01.20 bitrate=   3.7kbits/s speed=0.0459x elapsed=0:00:26.32    \nframe=   31 fps=1.2 q=51.0 size=       1KiB time=00:00:01.25 bitrate=   3.6kbits/s speed=0.0465x elapsed=0:00:26.89    \nframe=   32 fps=1.2 q=52.0 size=       1KiB time=00:00:01.29 bitrate=   3.5kbits/s speed=0.0471x elapsed=0:00:27.43    \nframe=   34 fps=1.2 q=51.0 size=       1KiB time=00:00:01.37 bitrate=   3.3kbits/s speed=0.0491x elapsed=0:00:27.97    \nframe=   35 fps=1.2 q=50.0 size=       1KiB time=00:00:01.41 bitrate=   3.2kbits/s speed=0.0496x elapsed=0:00:28.57    \nframe=   38 fps=1.3 q=51.0 size=       1KiB time=00:00:01.54 bitrate=   2.9kbits/s speed=0.0529x elapsed=0:00:29.13    \nframe=   39 fps=1.3 q=50.0 size=       1KiB time=00:00:01.58 bitrate=   2.8kbits/s speed=0.0533x elapsed=0:00:29.67    \nframe=   40 fps=1.3 q=51.0 size=       1KiB time=00:00:01.62 bitrate=   2.8kbits/s speed=0.0538x elapsed=0:00:30.21    \nframe=   42 fps=1.4 q=51.0 size=       1KiB time=00:00:01.70 bitrate=   2.6kbits/s speed=0.0556x elapsed=0:00:30.75    \nframe=   45 fps=1.4 q=48.0 size=       1KiB time=00:00:01.83 bitrate=   2.5kbits/s speed=0.0586x elapsed=0:00:31.27    \nframe=   45 fps=1.4 q=48.0 size=       1KiB time=00:00:01.83 bitrate=   2.5kbits/s speed=0.0576x elapsed=0:00:31.80    \nframe=   46 fps=1.4 q=51.0 size=       1KiB time=00:00:01.87 bitrate=   2.4kbits/s speed=0.058x elapsed=0:00:32.31    \nframe=   46 fps=1.4 q=51.0 size=       1KiB time=00:00:01.87 bitrate=   2.4kbits/s speed=0.0571x elapsed=0:00:32.85    \nframe=   47 fps=1.4 q=50.0 size=       1KiB time=00:00:01.91 bitrate=   2.3kbits/s speed=0.0574x elapsed=0:00:33.38    \nframe=   48 fps=1.4 q=51.0 size=       1KiB time=00:00:01.95 bitrate=   2.3kbits/s speed=0.0577x elapsed=0:00:33.91    \nframe=   50 fps=1.5 q=51.0 size=       1KiB time=00:00:02.04 bitrate=   2.2kbits/s speed=0.0593x elapsed=0:00:34.45    \nframe=   51 fps=1.5 q=50.0 size=       1KiB time=00:00:02.08 bitrate=   2.2kbits/s speed=0.0595x elapsed=0:00:34.98    \nframe=   53 fps=1.5 q=48.0 size=       1KiB time=00:00:02.16 bitrate=   2.1kbits/s speed=0.0609x elapsed=0:00:35.55    \nframe=   54 fps=1.5 q=51.0 size=       1KiB time=00:00:02.20 bitrate=   2.0kbits/s speed=0.0612x elapsed=0:00:36.08    \nframe=   55 fps=1.5 q=50.0 size=       1KiB time=00:00:02.25 bitrate=   2.0kbits/s speed=0.0614x elapsed=0:00:36.62    \nframe=   55 fps=1.5 q=50.0 size=       1KiB time=00:00:02.25 bitrate=   2.0kbits/s speed=0.0605x elapsed=0:00:37.16    \nframe=   56 fps=1.5 q=51.0 size=       1KiB time=00:00:02.29 bitrate=   2.0kbits/s speed=0.0608x elapsed=0:00:37.68    \nframe=   58 fps=1.5 q=51.0 size=       1KiB time=00:00:02.37 bitrate=   1.9kbits/s speed=0.0621x elapsed=0:00:38.21    \nframe=   59 fps=1.5 q=50.0 size=       1KiB time=00:00:02.41 bitrate=   1.9kbits/s speed=0.0624x elapsed=0:00:38.75    \nframe=   60 fps=1.5 q=51.0 size=       1KiB time=00:00:02.45 bitrate=   1.8kbits/s speed=0.0626x elapsed=0:00:39.30    \nframe=   61 fps=1.5 q=48.0 size=       1KiB time=00:00:02.50 bitrate=   1.8kbits/s speed=0.0628x elapsed=0:00:39.81    \nframe=   63 fps=1.6 q=45.0 size=       1KiB time=00:00:02.58 bitrate=   1.7kbits/s speed=0.0641x elapsed=0:00:40.32    \nframe=   64 fps=1.6 q=49.0 size=       1KiB time=00:00:02.62 bitrate=   1.7kbits/s speed=0.0642x elapsed=0:00:40.86    \nframe=   64 fps=1.5 q=49.0 size=       1KiB time=00:00:02.62 bitrate=   1.7kbits/s speed=0.0634x elapsed=0:00:41.39    \nframe=   66 fps=1.6 q=51.0 size=       1KiB time=00:00:02.70 bitrate=   1.7kbits/s speed=0.0646x elapsed=0:00:41.93    \nframe=   67 fps=1.6 q=50.0 size=       1KiB time=00:00:02.75 bitrate=   1.6kbits/s speed=0.0648x elapsed=0:00:42.45    \nframe=   69 fps=1.6 q=48.0 size=       1KiB time=00:00:02.83 bitrate=   1.6kbits/s speed=0.0659x elapsed=0:00:42.97    \nframe=   70 fps=1.6 q=51.0 size=       1KiB time=00:00:02.87 bitrate=   1.6kbits/s speed=0.0661x elapsed=0:00:43.52    \nframe=   72 fps=1.6 q=51.0 size=       1KiB time=00:00:02.95 bitrate=   1.5kbits/s speed=0.0672x elapsed=0:00:44.03    \nframe=   73 fps=1.6 q=44.0 size=       1KiB time=00:00:03.00 bitrate=   1.5kbits/s speed=0.0673x elapsed=0:00:44.59    \nframe=   75 fps=1.7 q=50.0 size=       1KiB time=00:00:03.08 bitrate=   1.5kbits/s speed=0.0683x elapsed=0:00:45.15    \nframe=   77 fps=1.7 q=48.0 size=       1KiB time=00:00:03.16 bitrate=   1.4kbits/s speed=0.0693x elapsed=0:00:45.72    \nframe=   78 fps=1.7 q=49.0 size=       1KiB time=00:00:03.20 bitrate=   1.4kbits/s speed=0.0694x elapsed=0:00:46.25    \nframe=   79 fps=1.7 q=46.0 size=       1KiB time=00:00:03.25 bitrate=   1.4kbits/s speed=0.0694x elapsed=0:00:46.80    \nframe=   79 fps=1.7 q=46.0 size=       1KiB time=00:00:03.25 bitrate=   1.4kbits/s speed=0.0687x elapsed=0:00:47.32    \nframe=   80 fps=1.7 q=49.0 size=       1KiB time=00:00:03.29 bitrate=   1.4kbits/s speed=0.0688x elapsed=0:00:47.84    \nframe=   81 fps=1.7 q=35.0 size=       1KiB time=00:00:03.33 bitrate=   1.3kbits/s speed=0.0689x elapsed=0:00:48.38    \nframe=   83 fps=1.7 q=49.0 size=       1KiB time=00:00:03.41 bitrate=   1.3kbits/s speed=0.0697x elapsed=0:00:48.99    \nframe=   84 fps=1.7 q=50.0 size=       1KiB time=00:00:03.45 bitrate=   1.3kbits/s speed=0.0698x elapsed=0:00:49.52    \nframe=   85 fps=1.7 q=47.0 size=       1KiB time=00:00:03.50 bitrate=   1.3kbits/s speed=0.0699x elapsed=0:00:50.03    \nframe=   86 fps=1.7 q=50.0 size=       1KiB time=00:00:03.54 bitrate=   1.3kbits/s speed=0.0701x elapsed=0:00:50.55    \nframe=   87 fps=1.7 q=49.0 size=       1KiB time=00:00:03.58 bitrate=   1.3kbits/s speed=0.0701x elapsed=0:00:51.08    \nframe=   88 fps=1.7 q=50.0 size=       1KiB time=00:00:03.62 bitrate=   1.2kbits/s speed=0.0702x elapsed=0:00:51.61    \nframe=   89 fps=1.7 q=43.0 size=       1KiB time=00:00:03.66 bitrate=   1.2kbits/s speed=0.0703x elapsed=0:00:52.14    \nframe=   90 fps=1.7 q=50.0 size=       1KiB time=00:00:03.70 bitrate=   1.2kbits/s speed=0.0704x elapsed=0:00:52.68    \nframe=   92 fps=1.7 q=50.0 size=       1KiB time=00:00:03.79 bitrate=   1.2kbits/s speed=0.0712x elapsed=0:00:53.27    \nframe=   92 fps=1.7 q=50.0 size=       1KiB time=00:00:03.79 bitrate=   1.2kbits/s speed=0.0705x elapsed=0:00:53.79    \nframe=   92 fps=1.7 q=50.0 size=       1KiB time=00:00:03.79 bitrate=   1.2kbits/s speed=0.0698x elapsed=0:00:54.29    \nframe=   93 fps=1.7 q=47.0 size=       1KiB time=00:00:03.83 bitrate=   1.2kbits/s speed=0.0699x elapsed=0:00:54.82    \nframe=   94 fps=1.7 q=50.0 size=       1KiB time=00:00:03.87 bitrate=   1.2kbits/s speed=0.0699x elapsed=0:00:55.41    \nframe=   96 fps=1.7 q=50.0 size=       1KiB time=00:00:03.95 bitrate=   1.1kbits/s speed=0.0707x elapsed=0:00:55.96    \nframe=   99 fps=1.8 q=49.0 size=       1KiB time=00:00:04.08 bitrate=   1.1kbits/s speed=0.0722x elapsed=0:00:56.55    \nframe=  100 fps=1.8 q=50.0 size=       1KiB time=00:00:04.12 bitrate=   1.1kbits/s speed=0.0723x elapsed=0:00:57.07    \nframe=  102 fps=1.8 q=50.0 size=       1KiB time=00:00:04.20 bitrate=   1.1kbits/s speed=0.073x elapsed=0:00:57.65    \nframe=  103 fps=1.8 q=49.0 size=       1KiB time=00:00:04.25 bitrate=   1.1kbits/s speed=0.0731x elapsed=0:00:58.17    \nframe=  103 fps=1.8 q=49.0 size=       1KiB time=00:00:04.25 bitrate=   1.1kbits/s speed=0.0724x elapsed=0:00:58.71    \nframe=  106 fps=1.8 q=50.0 size=       1KiB time=00:00:04.37 bitrate=   1.0kbits/s speed=0.0738x elapsed=0:00:59.25    \nframe=  107 fps=1.8 q=49.0 size=       1KiB time=00:00:04.41 bitrate=   1.0kbits/s speed=0.0739x elapsed=0:00:59.78    \nframe=  108 fps=1.8 q=50.0 size=       1KiB time=00:00:04.45 bitrate=   1.0kbits/s speed=0.0739x elapsed=0:01:00.33    \nframe=  111 fps=1.8 q=46.0 size=       1KiB time=00:00:04.58 bitrate=   1.0kbits/s speed=0.0753x elapsed=0:01:00.89    \nframe=  111 fps=1.8 q=46.0 size=       1KiB time=00:00:04.58 bitrate=   1.0kbits/s speed=0.0745x elapsed=0:01:01.48    \nframe=  113 fps=1.8 q=35.0 size=       1KiB time=00:00:04.66 bitrate=   1.0kbits/s speed=0.0752x elapsed=0:01:02.04    \nframe=  114 fps=1.8 q=50.0 size=       1KiB time=00:00:04.70 bitrate=   1.0kbits/s speed=0.0752x elapsed=0:01:02.61    \nframe=  115 fps=1.8 q=49.0 size=       1KiB time=00:00:04.75 bitrate=   0.9kbits/s speed=0.0752x elapsed=0:01:03.17    \nframe=  117 fps=1.8 q=47.0 size=       1KiB time=00:00:04.83 bitrate=   0.9kbits/s speed=0.0758x elapsed=0:01:03.76    \nframe=  118 fps=1.8 q=50.0 size=       1KiB time=00:00:04.87 bitrate=   0.9kbits/s speed=0.0757x elapsed=0:01:04.36    \nframe=  118 fps=1.8 q=50.0 size=       1KiB time=00:00:04.87 bitrate=   0.9kbits/s speed=0.0751x elapsed=0:01:04.95    \nframe=  119 fps=1.8 q=49.0 size=       1KiB time=00:00:04.91 bitrate=   0.9kbits/s speed=0.0751x elapsed=0:01:05.50    \nframe=  121 fps=1.8 q=43.0 size=       1KiB time=00:00:05.00 bitrate=   0.9kbits/s speed=0.0757x elapsed=0:01:06.03    \nframe=  123 fps=1.8 q=49.0 size=     512KiB time=00:00:05.08 bitrate= 825.1kbits/s speed=0.0763x elapsed=0:01:06.58    \nframe=  123 fps=1.8 q=49.0 size=     512KiB time=00:00:05.08 bitrate= 825.1kbits/s speed=0.0757x elapsed=0:01:07.12    \nframe=  124 fps=1.8 q=50.0 size=     512KiB time=00:00:05.12 bitrate= 818.4kbits/s speed=0.0757x elapsed=0:01:07.73    \nframe=  126 fps=1.8 q=49.0 size=     512KiB time=00:00:05.20 bitrate= 805.3kbits/s speed=0.0763x elapsed=0:01:08.29    \nframe=  128 fps=1.9 q=47.0 size=     512KiB time=00:00:05.25 bitrate= 798.9kbits/s speed=0.0762x elapsed=0:01:08.86    \nframe=  128 fps=1.8 q=47.0 size=     512KiB time=00:00:05.29 bitrate= 792.6kbits/s speed=0.0762x elapsed=0:01:09.43    \nframe=  130 fps=1.9 q=51.0 size=     512KiB time=00:00:05.33 bitrate= 786.4kbits/s speed=0.0761x elapsed=0:01:10.04    \nframe=  131 fps=1.9 q=50.0 size=     512KiB time=00:00:05.41 bitrate= 774.3kbits/s speed=0.0767x elapsed=0:01:10.62    \nframe=  131 fps=1.8 q=50.0 size=     512KiB time=00:00:05.41 bitrate= 774.3kbits/s speed=0.0761x elapsed=0:01:11.20    \nframe=  133 fps=1.9 q=48.0 size=     512KiB time=00:00:05.50 bitrate= 762.6kbits/s speed=0.0766x elapsed=0:01:11.78    \nframe=  135 fps=1.9 q=50.0 size=     512KiB time=00:00:05.58 bitrate= 751.2kbits/s speed=0.0771x elapsed=0:01:12.39    \nframe=  135 fps=1.8 q=50.0 size=     512KiB time=00:00:05.58 bitrate= 751.2kbits/s speed=0.0765x elapsed=0:01:13.02    \nframe=  136 fps=1.8 q=51.0 size=     512KiB time=00:00:05.62 bitrate= 745.7kbits/s speed=0.0765x elapsed=0:01:13.56    \nframe=  138 fps=1.9 q=50.0 size=     512KiB time=00:00:05.70 bitrate= 734.8kbits/s speed=0.077x elapsed=0:01:14.15    \nframe=  139 fps=1.9 q=49.0 size=     512KiB time=00:00:05.75 bitrate= 729.4kbits/s speed=0.0769x elapsed=0:01:14.78    \nframe=  141 fps=1.9 q=47.0 size=     512KiB time=00:00:05.83 bitrate= 719.0kbits/s speed=0.0775x elapsed=0:01:15.31    \nframe=  143 fps=1.9 q=49.0 size=     512KiB time=00:00:05.91 bitrate= 708.9kbits/s speed=0.078x elapsed=0:01:15.85    \nframe=  145 fps=1.9 q=35.0 size=     512KiB time=00:00:06.00 bitrate= 699.1kbits/s speed=0.0785x elapsed=0:01:16.38    \nframe=  145 fps=1.9 q=35.0 size=     512KiB time=00:00:06.00 bitrate= 699.1kbits/s speed=0.078x elapsed=0:01:16.93    \nframe=  147 fps=1.9 q=50.0 size=     512KiB time=00:00:06.08 bitrate= 689.5kbits/s speed=0.0785x elapsed=0:01:17.52    \nframe=  149 fps=1.9 q=48.0 size=     512KiB time=00:00:06.16 bitrate= 680.2kbits/s speed=0.079x elapsed=0:01:18.07    \nframe=  153 fps=1.9 q=45.0 size=     512KiB time=00:00:06.33 bitrate= 662.3kbits/s speed=0.0805x elapsed=0:01:18.62    \nframe=  153 fps=1.9 q=45.0 size=     512KiB time=00:00:06.33 bitrate= 662.3kbits/s speed=0.0799x elapsed=0:01:19.23    \nframe=  153 fps=1.9 q=45.0 size=     512KiB time=00:00:06.33 bitrate= 662.3kbits/s speed=0.0794x elapsed=0:01:19.81    \nframe=  155 fps=1.9 q=50.0 size=     512KiB time=00:00:06.41 bitrate= 653.7kbits/s speed=0.0798x elapsed=0:01:20.39    \nframe=  157 fps=1.9 q=48.0 size=     512KiB time=00:00:06.50 bitrate= 645.3kbits/s speed=0.0803x elapsed=0:01:20.93    \nframe=  159 fps=2.0 q=50.0 size=     512KiB time=00:00:06.58 bitrate= 637.1kbits/s speed=0.0808x elapsed=0:01:21.49    \nframe=  161 fps=2.0 q=38.0 size=     512KiB time=00:00:06.66 bitrate= 629.1kbits/s speed=0.0812x elapsed=0:01:22.06    \nframe=  161 fps=1.9 q=38.0 size=     512KiB time=00:00:06.66 bitrate= 629.1kbits/s speed=0.0807x elapsed=0:01:22.58    \nframe=  161 fps=1.9 q=38.0 size=     512KiB time=00:00:06.66 bitrate= 629.1kbits/s speed=0.0802x elapsed=0:01:23.11    \nframe=  161 fps=1.9 q=38.0 size=     512KiB time=00:00:06.66 bitrate= 629.1kbits/s speed=0.0797x elapsed=0:01:23.65    \nframe=  162 fps=1.9 q=25.0 size=     512KiB time=00:00:06.70 bitrate= 625.2kbits/s speed=0.0797x elapsed=0:01:24.21    \nframe=  162 fps=1.9 q=25.0 size=     512KiB time=00:00:06.70 bitrate= 625.2kbits/s speed=0.0791x elapsed=0:01:24.75    \nframe=  162 fps=1.9 q=25.0 size=     512KiB time=00:00:06.70 bitrate= 625.2kbits/s speed=0.0786x elapsed=0:01:25.38    \nframe=  162 fps=1.9 q=25.0 size=     512KiB time=00:00:06.70 bitrate= 625.2kbits/s speed=0.078x elapsed=0:01:25.95    \nframe=  162 fps=1.9 q=25.0 size=     512KiB time=00:00:06.70 bitrate= 625.2kbits/s speed=0.0776x elapsed=0:01:26.50    \nframe=  162 fps=1.9 q=25.0 size=     512KiB time=00:00:06.70 bitrate= 625.2kbits/s speed=0.0771x elapsed=0:01:27.01    \nframe=  162 fps=1.9 q=25.0 size=     512KiB time=00:00:06.70 bitrate= 625.2kbits/s speed=0.0766x elapsed=0:01:27.54    \nframe=  162 fps=1.8 q=25.0 size=     512KiB time=00:00:06.70 bitrate= 625.2kbits/s speed=0.0762x elapsed=0:01:28.05    \nframe=  162 fps=1.8 q=25.0 size=     512KiB time=00:00:06.70 bitrate= 625.2kbits/s speed=0.0757x elapsed=0:01:28.57    \nframe=  162 fps=1.8 q=25.0 size=     512KiB time=00:00:06.70 bitrate= 625.2kbits/s speed=0.0753x elapsed=0:01:29.13    \nframe=  162 fps=1.8 q=25.0 size=     512KiB time=00:00:06.70 bitrate= 625.2kbits/s speed=0.0748x elapsed=0:01:29.65    \nframe=  162 fps=1.8 q=25.0 size=     512KiB time=00:00:06.70 bitrate= 625.2kbits/s speed=0.0743x elapsed=0:01:30.25    \nframe=  162 fps=1.8 q=25.0 size=     512KiB time=00:00:06.70 bitrate= 625.2kbits/s speed=0.0739x elapsed=0:01:30.80    \nframe=  164 fps=1.8 q=50.0 size=     512KiB time=00:00:06.79 bitrate= 617.6kbits/s speed=0.0743x elapsed=0:01:31.40    \nframe=  166 fps=1.8 q=47.0 size=     512KiB time=00:00:06.87 bitrate= 610.1kbits/s speed=0.0747x elapsed=0:01:31.97    \nframe=  168 fps=1.8 q=50.0 size=     512KiB time=00:00:06.95 bitrate= 602.8kbits/s speed=0.0752x elapsed=0:01:32.57    \nframe=  170 fps=1.8 q=41.0 size=     512KiB time=00:00:07.04 bitrate= 595.6kbits/s speed=0.0756x elapsed=0:01:33.14    \nframe=  170 fps=1.8 q=41.0 size=     512KiB time=00:00:07.04 bitrate= 595.6kbits/s speed=0.0752x elapsed=0:01:33.67    \nframe=  170 fps=1.8 q=41.0 size=     512KiB time=00:00:07.04 bitrate= 595.6kbits/s speed=0.0747x elapsed=0:01:34.28    \nframe=  174 fps=1.8 q=47.0 size=     512KiB time=00:00:07.20 bitrate= 581.9kbits/s speed=0.076x elapsed=0:01:34.84    \nframe=  174 fps=1.8 q=47.0 size=     512KiB time=00:00:07.20 bitrate= 581.9kbits/s speed=0.0755x elapsed=0:01:35.43    \nframe=  176 fps=1.8 q=50.0 size=     512KiB time=00:00:07.29 bitrate= 575.2kbits/s speed=0.0759x elapsed=0:01:36.04    \nframe=  178 fps=1.8 q=30.0 size=     512KiB time=00:00:07.37 bitrate= 568.7kbits/s speed=0.0762x elapsed=0:01:36.75    \nframe=  178 fps=1.8 q=30.0 size=     512KiB time=00:00:07.37 bitrate= 568.7kbits/s speed=0.0758x elapsed=0:01:37.35    \nframe=  178 fps=1.8 q=30.0 size=     512KiB time=00:00:07.37 bitrate= 568.7kbits/s speed=0.0753x elapsed=0:01:37.92    \nframe=  178 fps=1.8 q=30.0 size=     512KiB time=00:00:07.37 bitrate= 568.7kbits/s speed=0.0749x elapsed=0:01:38.50    \nframe=  178 fps=1.8 q=30.0 size=     512KiB time=00:00:07.37 bitrate= 568.7kbits/s speed=0.0744x elapsed=0:01:39.06    \nframe=  178 fps=1.8 q=30.0 size=     512KiB time=00:00:07.37 bitrate= 568.7kbits/s speed=0.074x elapsed=0:01:39.62    \nframe=  178 fps=1.8 q=30.0 size=     512KiB time=00:00:07.37 bitrate= 568.7kbits/s speed=0.0736x elapsed=0:01:40.19    \nframe=  182 fps=1.8 q=47.0 size=     512KiB time=00:00:07.45 bitrate= 562.4kbits/s speed=0.074x elapsed=0:01:40.76    \nframe=  182 fps=1.8 q=47.0 size=     512KiB time=00:00:07.54 bitrate= 556.2kbits/s speed=0.0744x elapsed=0:01:41.36    \nframe=  184 fps=1.8 q=50.0 size=     512KiB time=00:00:07.62 bitrate= 550.1kbits/s speed=0.0748x elapsed=0:01:41.95    \nframe=  186 fps=1.8 q=42.0 size=     512KiB time=00:00:07.70 bitrate= 544.1kbits/s speed=0.0751x elapsed=0:01:42.58    \nframe=  186 fps=1.8 q=42.0 size=     512KiB time=00:00:07.70 bitrate= 544.1kbits/s speed=0.0747x elapsed=0:01:43.22    \nframe=  186 fps=1.8 q=42.0 size=     512KiB time=00:00:07.70 bitrate= 544.1kbits/s speed=0.0742x elapsed=0:01:43.82    \nframe=  188 fps=1.8 q=50.0 size=     512KiB time=00:00:07.79 bitrate= 538.3kbits/s speed=0.0747x elapsed=0:01:44.36    \nframe=  190 fps=1.8 q=47.0 size=     512KiB time=00:00:07.87 bitrate= 532.6kbits/s speed=0.0751x elapsed=0:01:44.92    \nframe=  192 fps=1.8 q=50.0 size=     512KiB time=00:00:07.95 bitrate= 527.0kbits/s speed=0.0754x elapsed=0:01:45.48    \nframe=  194 fps=1.8 q=31.0 size=     512KiB time=00:00:08.04 bitrate= 521.6kbits/s speed=0.0758x elapsed=0:01:46.02    \nframe=  194 fps=1.8 q=31.0 size=     512KiB time=00:00:08.04 bitrate= 521.6kbits/s speed=0.0755x elapsed=0:01:46.58    \nframe=  194 fps=1.8 q=31.0 size=     512KiB time=00:00:08.04 bitrate= 521.6kbits/s speed=0.0751x elapsed=0:01:47.12    \nframe=  194 fps=1.8 q=31.0 size=     512KiB time=00:00:08.04 bitrate= 521.6kbits/s speed=0.0744x elapsed=0:01:48.11    \nframe=  198 fps=1.8 q=47.0 size=     512KiB time=00:00:08.20 bitrate= 511.0kbits/s speed=0.0753x elapsed=0:01:49.07    \nframe=  198 fps=1.8 q=47.0 size=     512KiB time=00:00:08.20 bitrate= 511.0kbits/s speed=0.0747x elapsed=0:01:49.90    \nframe=  202 fps=1.8 q=41.0 size=     512KiB time=00:00:08.37 bitrate= 500.8kbits/s speed=0.0757x elapsed=0:01:50.59    \nframe=  202 fps=1.8 q=41.0 size=     512KiB time=00:00:08.37 bitrate= 500.8kbits/s speed=0.0753x elapsed=0:01:51.16    \nframe=  202 fps=1.8 q=41.0 size=     512KiB time=00:00:08.37 bitrate= 500.8kbits/s speed=0.075x elapsed=0:01:51.71    \nframe=  206 fps=1.8 q=46.0 size=     512KiB time=00:00:08.54 bitrate= 491.0kbits/s speed=0.0761x elapsed=0:01:52.24    \nframe=  206 fps=1.8 q=46.0 size=     512KiB time=00:00:08.54 bitrate= 491.0kbits/s speed=0.0757x elapsed=0:01:52.76    \nframe=  208 fps=1.8 q=49.0 size=     512KiB time=00:00:08.62 bitrate= 486.3kbits/s speed=0.0761x elapsed=0:01:53.31    \nframe=  210 fps=1.8 q=30.0 size=     512KiB time=00:00:08.70 bitrate= 481.6kbits/s speed=0.0765x elapsed=0:01:53.84    \nframe=  210 fps=1.8 q=30.0 size=     512KiB time=00:00:08.70 bitrate= 481.6kbits/s speed=0.0761x elapsed=0:01:54.36    \nframe=  210 fps=1.8 q=30.0 size=     512KiB time=00:00:08.70 bitrate= 481.6kbits/s speed=0.0758x elapsed=0:01:54.88    \nframe=  210 fps=1.8 q=30.0 size=     512KiB time=00:00:08.70 bitrate= 481.6kbits/s speed=0.0755x elapsed=0:01:55.41    \nframe=  210 fps=1.8 q=30.0 size=     512KiB time=00:00:08.70 bitrate= 481.6kbits/s speed=0.0751x elapsed=0:01:55.97    \nframe=  212 fps=1.8 q=47.0 size=     512KiB time=00:00:08.79 bitrate= 477.1kbits/s speed=0.0755x elapsed=0:01:56.49    \nframe=  214 fps=1.8 q=45.0 size=     512KiB time=00:00:08.87 bitrate= 472.6kbits/s speed=0.0758x elapsed=0:01:57.02    \nframe=  214 fps=1.8 q=45.0 size=     512KiB time=00:00:08.87 bitrate= 472.6kbits/s speed=0.0755x elapsed=0:01:57.60    \nframe=  216 fps=1.8 q=46.0 size=     512KiB time=00:00:08.95 bitrate= 468.2kbits/s speed=0.0758x elapsed=0:01:58.17    \nframe=  218 fps=1.8 q=41.0 size=     512KiB time=00:00:09.04 bitrate= 463.9kbits/s speed=0.0761x elapsed=0:01:58.73    \nframe=  218 fps=1.8 q=41.0 size=     512KiB time=00:00:09.04 bitrate= 463.9kbits/s speed=0.0758x elapsed=0:01:59.30    \nframe=  218 fps=1.8 q=41.0 size=     512KiB time=00:00:09.04 bitrate= 463.9kbits/s speed=0.0754x elapsed=0:01:59.84    \nframe=  222 fps=1.8 q=46.0 size=     512KiB time=00:00:09.20 bitrate= 455.5kbits/s speed=0.0765x elapsed=0:02:00.42    \nframe=  224 fps=1.9 q=49.0 size=     512KiB time=00:00:09.29 bitrate= 451.4kbits/s speed=0.0768x elapsed=0:02:00.97    \nframe=  232 fps=1.9 q=48.0 size=     512KiB time=00:00:09.62 bitrate= 435.8kbits/s speed=0.0792x elapsed=0:02:01.55    \n[out#0/matroska @ 0000023903ed8ec0] video:1206KiB audio:0KiB subtitle:0KiB other streams:0KiB global headers:0KiB muxing overhead: 0.142234%\nframe=  240 fps=2.0 q=43.0 Lsize=    1208KiB time=00:00:09.95 bitrate= 993.8kbits/s speed=0.0819x elapsed=0:02:01.60    \n",
  "seconds": 123.18232846260071,
  "probe_out": {}
}